<svg width="512" height="512" viewBox="0 0 512 512" xmlns="http://www.w3.org/2000/svg">
  <path fill="#FFFFFF" d="M400 64h-48V32c0-17.7-14.3-32-32-32h-32c-17.7 0-32 14.3-32 32v32H256V32c0-17.7-14.3-32-32-32h-32c-17.7 0-32 14.3-32 32v32H112C50.1 64 0 114.1 0 176v272c0 61.9 50.1 112 112 112h288c61.9 0 112-50.1 112-112V176c0-61.9-50.1-112-112-112zm48 384c0 26.5-21.5 48-48 48H112c-26.5 0-48-21.5-48-48V192h384v256z"/>
  <path fill="#FFFFFF" d="M362.6 254.6l-128 128c-12.5 12.5-32.8 12.5-45.3 0l-64-64c-12.5-12.5-12.5-32.8 0-45.3 12.5-12.5 32.8-12.5 45.3 0l41.4 41.4 105.4-105.4c12.5-12.5 32.8-12.5 45.3 0 12.5 12.5 12.5 32.8 0 45.3z"/>
</svg>